<?xml version="1.0" standalone="no"?>
<!DOCTYPE svg PUBLIC "-//W3C//DTD SVG 20010904//EN"
 "http://www.w3.org/TR/2001/REC-SVG-20010904/DTD/svg10.dtd">
<svg version="1.0" xmlns="http://www.w3.org/2000/svg"
 width="1024.000000pt" height="1024.000000pt" viewBox="0 0 1024.000000 1024.000000"
 preserveAspectRatio="xMidYMid meet">

<g transform="translate(0.000000,1024.000000) scale(0.100000,-0.100000)"
fill="#000000" stroke="none">
<path d="M5747 8329 c-10 -6 -80 -14 -155 -19 -157 -9 -179 -14 -160 -39 12
-14 11 -15 -5 -2 -16 12 -21 10 -52 -21 -69 -69 -84 -159 -46 -278 32 -100 25
-210 -13 -210 -15 0 -56 -41 -56 -56 0 -6 -31 -21 -69 -33 -86 -28 -100 -38
-107 -76 -3 -17 -11 -36 -18 -43 -14 -15 -62 -18 -108 -9 -25 5 -28 2 -37 -31
-6 -20 -9 -37 -8 -38 1 0 25 -9 52 -19 28 -11 60 -25 72 -32 17 -11 22 -12 27
-1 3 7 3 3 0 -9 -3 -13 -1 -23 4 -23 10 0 8 -57 -3 -140 -4 -30 -1 -57 9 -82
25 -59 20 -117 -12 -169 -28 -43 -29 -51 -36 -207 l-7 -163 183 8 c101 4 251
7 335 5 l152 -4 6 29 c4 15 13 49 21 74 8 25 43 150 78 278 36 128 70 239 77
247 19 23 66 39 149 53 80 12 169 38 184 52 6 6 -3 22 -23 43 -25 26 -39 33
-64 30 -18 -1 -26 0 -19 3 6 2 9 10 5 16 -4 7 1 6 10 -2 10 -8 20 -12 23 -9 7
8 -18 58 -26 53 -4 -3 -8 1 -7 8 1 45 -2 47 -62 47 -45 0 -71 7 -118 31 -57
29 -65 31 -177 30 -65 -1 -122 -3 -126 -6 -4 -2 -10 12 -14 33 -11 70 -10 72
37 72 59 0 82 18 74 58 -4 18 -2 32 3 32 5 0 9 8 8 18 -4 49 3 74 22 79 25 7
25 11 0 48 -22 33 -25 66 -9 96 8 15 6 33 -6 70 -9 27 -20 47 -24 44 -5 -2 -6
6 -4 19 3 15 14 27 27 30 27 7 46 44 46 91 0 37 -5 40 -33 24z m-164 -36 c-13
-2 -33 -2 -45 0 -13 2 -3 4 22 4 25 0 35 -2 23 -4z m10 -20 c-7 -2 -21 -2 -30
0 -10 3 -4 5 12 5 17 0 24 -2 18 -5z m-106 -9 c-3 -3 -12 -4 -19 -1 -8 3 -5 6
6 6 11 1 17 -2 13 -5z m208 -64 c3 -5 1 -10 -4 -10 -6 0 -11 5 -11 10 0 6 2
10 4 10 3 0 8 -4 11 -10z m-45 -76 c0 -21 -4 -33 -10 -29 -17 10 -11 65 7 65
2 0 3 -16 3 -36z m65 -52 c-3 -3 -11 0 -18 7 -9 10 -8 11 6 5 10 -3 15 -9 12
-12z m-388 -14 c-3 -8 -6 -5 -6 6 -1 11 2 17 5 13 3 -3 4 -12 1 -19z m379
-124 c-4 -9 -9 -15 -11 -12 -3 3 -3 13 1 22 4 9 9 15 11 12 3 -3 3 -13 -1 -22z
m3 -107 c0 -9 -2 -8 -6 1 -2 6 -10 9 -15 6 -7 -4 -8 -2 -4 5 9 13 26 5 25 -12z
m-355 -113 c5 -14 4 -15 -9 -4 -17 14 -19 20 -6 20 5 0 12 -7 15 -16z"/>
<path d="M4542 8083 c-13 -3 -56 -38 -95 -79 -64 -67 -78 -77 -163 -110 -124
-48 -171 -81 -229 -159 -85 -117 -159 -163 -243 -153 -31 4 -32 3 -16 -10 14
-10 40 -13 94 -9 63 3 91 11 175 50 55 25 147 58 204 72 165 42 203 59 258
118 27 28 59 69 72 90 13 21 25 37 26 35 2 -2 -1 -26 -6 -53 -17 -87 12 -172
66 -197 29 -13 34 -58 11 -113 -21 -49 -44 -58 -116 -45 -69 13 -113 4 -200
-40 -30 -15 -91 -42 -135 -60 -44 -18 -84 -36 -90 -41 -5 -4 -48 -7 -95 -7
-47 1 -146 -4 -220 -11 -198 -16 -259 -15 -305 9 -48 24 -67 25 -111 4 -42
-20 -64 -59 -64 -115 0 -34 6 -47 35 -76 33 -33 38 -35 87 -31 44 5 57 11 83
40 l30 35 85 -14 c128 -20 361 -20 435 1 33 10 114 28 180 41 66 13 134 26
151 30 30 7 31 5 61 -62 81 -180 91 -290 39 -397 -15 -30 -66 -97 -115 -149
l-88 -95 -71 -179 c-69 -173 -101 -273 -139 -433 l-18 -75 -83 -40 c-89 -43
-104 -57 -230 -212 -67 -83 -67 -83 -114 -83 -56 0 -125 -25 -138 -51 -16 -29
-11 -95 11 -162 19 -55 20 -67 8 -119 -24 -115 10 -231 79 -271 33 -20 34 -20
59 0 39 28 56 85 50 170 -5 67 -3 79 30 155 20 46 36 92 36 103 -1 14 29 39
106 90 58 38 137 94 174 125 66 54 123 95 188 135 37 23 177 222 264 376 31
55 59 98 62 96 5 -6 130 -284 138 -308 4 -11 -12 -27 -52 -52 -82 -50 -123
-98 -181 -207 -63 -119 -151 -240 -174 -240 -10 0 -38 -16 -64 -35 -25 -19
-51 -35 -57 -36 -34 -2 -52 -10 -79 -36 -24 -23 -28 -34 -24 -57 7 -34 41 -92
91 -153 22 -28 38 -62 45 -100 27 -128 212 -250 237 -155 9 36 5 62 -18 93
-34 48 -38 71 -24 159 7 47 18 97 25 112 10 22 10 30 -4 49 -9 13 -16 29 -16
35 0 7 82 86 183 177 100 91 224 209 274 264 l92 99 18 85 c12 58 18 127 18
224 0 129 -3 149 -34 259 l-34 118 7 237 c6 208 9 238 25 256 46 51 51 92 22
175 -11 30 -17 58 -15 62 11 17 21 103 15 126 -6 20 -23 32 -82 57 -74 32 -74
32 -72 69 1 20 10 53 19 72 l16 34 67 -2 66 -3 0 33 c0 18 6 37 14 41 8 6 12
19 9 35 -4 19 0 27 13 31 25 8 24 26 -1 58 -18 23 -20 36 -15 99 5 64 3 78
-17 112 -35 61 -100 90 -197 89 -55 0 -90 -6 -123 -21 -44 -19 -46 -19 -74 -2
-33 20 -78 30 -112 23z"/>
<path d="M6313 7914 c-57 -21 -136 -94 -164 -152 -17 -35 -23 -65 -23 -117 -1
-118 54 -208 159 -263 41 -22 63 -26 125 -25 121 1 209 54 261 155 27 52 36
153 19 211 -17 63 -76 135 -139 170 -65 37 -170 46 -238 21z"/>
<path d="M5375 6611 c11 -4 50 -11 86 -15 56 -5 137 -22 202 -42 9 -3 17 -1
17 4 0 5 -16 13 -35 16 -19 4 -35 11 -35 15 0 5 -39 12 -87 15 -49 4 -106 9
-128 11 -28 4 -34 2 -20 -4z"/>
<path d="M5022 6528 c3 -29 17 -98 32 -153 37 -135 45 -284 21 -426 -9 -57
-25 -122 -35 -144 -23 -54 -182 -219 -343 -359 -122 -105 -197 -176 -186 -176
13 0 161 68 279 127 118 59 138 73 160 110 26 43 124 126 275 232 173 122 274
216 347 324 l26 39 171 2 c94 0 171 0 171 -2 0 -1 -12 -26 -26 -55 -64 -124
-73 -209 -83 -755 -1 -35 -5 -45 -20 -49 -13 -3 -22 -17 -26 -43 -4 -22 -13
-44 -21 -51 -8 -6 -14 -18 -14 -25 0 -8 -4 -14 -8 -14 -10 0 -31 -120 -25
-137 6 -15 58 -33 98 -33 18 0 72 -7 121 -16 133 -23 281 -20 352 9 52 20 57
25 60 55 5 48 -19 68 -99 87 -108 24 -174 67 -210 136 -15 30 -22 36 -44 32
-14 -3 -25 -2 -25 2 0 34 85 293 146 443 127 314 180 536 141 595 -36 55 -315
167 -581 233 -199 49 -311 63 -519 64 l-139 0 4 -52z"/>
<path d="M3386 6471 l-78 -26 6 -85 c8 -94 35 -237 61 -315 29 -88 114 -251
157 -299 22 -26 42 -45 45 -42 2 2 -7 30 -22 61 -83 182 -116 447 -81 658 9
53 9 77 2 75 -6 0 -46 -13 -90 -27z"/>
<path d="M2907 6044 c-9 -17 -35 -48 -58 -69 l-43 -39 55 -49 c92 -83 288
-226 410 -298 120 -71 194 -107 188 -91 -2 5 -61 59 -131 120 -153 135 -331
333 -394 438 -10 17 -12 16 -27 -12z"/>
<path d="M2967 5283 c-12 -21 -38 -115 -34 -120 7 -7 329 33 435 54 45 8 82
20 82 25 0 5 -3 7 -8 5 -8 -6 -400 29 -444 38 -14 4 -28 3 -31 -2z"/>
<path d="M3335 5121 c-211 -54 -450 -123 -453 -131 -2 -4 -11 -6 -21 -3 -24 6
-35 -11 -27 -43 8 -29 -2 -31 231 44 93 30 211 74 263 98 51 24 97 44 102 44
5 0 12 5 15 10 3 6 5 10 3 9 -2 0 -52 -13 -113 -28z"/>
<path d="M6500 5127 c81 -42 327 -137 367 -142 12 -2 27 -6 33 -10 7 -4 50
-18 96 -31 l84 -23 6 25 c4 14 3 29 -2 33 -9 7 -205 63 -269 77 -16 3 -58 15
-93 26 -35 11 -66 17 -69 14 -3 -3 -11 -2 -17 3 -12 10 -125 41 -147 41 -8 0
-3 -6 11 -13z m177 -53 c-3 -3 -12 -4 -19 -1 -8 3 -5 6 6 6 11 1 17 -2 13 -5z"/>
<path d="M3493 4669 c-142 -24 -246 -97 -273 -194 -20 -69 -19 -170 3 -226 34
-88 114 -137 290 -174 231 -50 263 -62 282 -108 18 -43 5 -79 -36 -100 -28
-15 -51 -18 -134 -14 -115 4 -161 22 -178 68 l-11 29 -118 0 -118 0 0 -37 c0
-53 40 -132 85 -172 85 -75 212 -107 384 -98 172 9 277 56 335 150 24 39 30
62 34 125 5 99 -8 148 -59 205 -55 64 -137 101 -299 137 -164 37 -217 56 -237
86 -40 62 13 118 123 129 121 13 179 -13 190 -86 l6 -36 76 -7 c41 -3 100 -6
129 -6 l55 0 -7 53 c-18 127 -52 186 -134 231 -88 47 -256 67 -388 45z"/>
<path d="M6358 4493 c-5 -83 -12 -124 -32 -177 -32 -85 -32 -96 -2 -96 13 0
27 -7 30 -16 3 -9 6 -114 6 -235 0 -246 6 -275 62 -309 38 -23 152 -28 209 -9
61 21 150 81 145 98 -2 9 -7 37 -11 62 l-6 46 -55 -5 c-43 -4 -59 -1 -74 13
-18 17 -20 32 -20 187 l0 168 75 0 75 0 0 95 0 94 -72 3 -73 3 -5 90 -5 90
-121 3 -121 3 -5 -108z"/>
<path d="M4455 4411 c-22 -10 -55 -33 -72 -51 l-33 -34 0 26 c0 56 -4 58 -116
58 l-104 0 0 -560 c0 -308 1 -560 3 -560 2 0 57 22 123 48 l119 48 5 164 c4
143 7 161 19 146 35 -42 90 -58 181 -54 75 3 92 7 129 31 84 56 129 160 138
323 13 225 -57 384 -186 422 -58 18 -160 15 -206 -7z m64 -192 c52 -18 76 -75
75 -184 0 -92 -8 -120 -47 -162 -30 -34 -109 -32 -142 2 -24 23 -25 29 -25
163 0 150 3 158 60 181 33 13 41 13 79 0z"/>
<path d="M5125 4410 c-141 -45 -215 -173 -215 -374 0 -143 34 -248 102 -313
124 -119 413 -114 537 8 19 19 46 59 60 89 24 52 26 64 26 215 0 146 -2 164
-23 210 -27 58 -82 119 -132 145 -85 43 -252 53 -355 20z m208 -191 c43 -19
52 -52 52 -185 0 -109 -2 -126 -21 -151 -43 -57 -148 -53 -179 7 -21 41 -21
249 1 291 23 46 92 63 147 38z"/>
<path d="M6113 4414 c-23 -9 -60 -34 -83 -56 -22 -23 -42 -39 -43 -37 -1 2
-11 22 -22 44 l-20 40 -107 3 -108 3 0 -381 0 -380 125 0 125 0 0 224 c0 211
1 225 21 250 32 41 74 58 135 55 29 -2 56 0 59 3 3 3 16 56 29 117 23 107 23
112 6 121 -25 14 -67 11 -117 -6z"/>
<path d="M2050 3100 l0 -520 126 0 125 0 -2 265 c-1 146 2 265 6 266 8 1 51
-77 142 -256 42 -82 46 -85 133 -85 l76 0 41 73 c82 145 94 170 89 184 -3 8
-1 11 4 8 5 -3 20 14 32 39 12 26 26 46 30 46 4 0 8 -121 8 -270 l0 -270 118
0 117 0 0 518 0 517 -111 3 c-96 2 -112 0 -126 -15 -30 -35 -109 -193 -102
-205 4 -6 3 -8 -3 -5 -6 4 -31 -33 -56 -81 -79 -151 -113 -207 -122 -204 -6 2
-21 24 -35 50 -14 26 -47 88 -74 137 -27 50 -60 110 -74 135 -13 25 -43 78
-65 117 l-42 73 -117 0 -118 0 0 -520z m1027 -182 c-2 -24 -4 -5 -4 42 0 47 2
66 4 43 2 -24 2 -62 0 -85z m-639 17 c-3 -3 -9 2 -12 12 -6 14 -5 15 5 6 7 -7
10 -15 7 -18z m639 -172 c-3 -10 -5 -4 -5 12 0 17 2 24 5 18 2 -7 2 -21 0 -30z"/>
<path d="M3464 3335 c-80 -15 -170 -49 -197 -75 -18 -17 -18 -19 10 -69 17
-28 33 -48 38 -43 4 4 6 0 2 -9 -11 -31 13 -39 54 -18 62 31 155 51 201 44 46
-8 88 -43 88 -74 0 -21 -11 -24 -105 -36 -71 -9 -191 -42 -223 -62 -68 -43
-119 -126 -109 -178 2 -14 0 -22 -5 -19 -14 9 2 -85 20 -121 37 -74 99 -105
211 -105 94 0 183 28 207 66 l16 24 27 -30 c35 -40 89 -60 159 -60 57 0 92 16
74 34 -4 4 0 6 8 4 10 -2 27 22 52 72 21 41 38 78 38 83 0 4 -17 7 -38 7 -70
0 -76 16 -82 219 -6 191 -10 206 -71 275 -61 70 -223 101 -375 71z m196 -476
c0 -46 -4 -55 -36 -85 -29 -28 -43 -34 -80 -34 -55 0 -84 25 -84 75 0 40 26
71 67 81 16 3 33 7 38 9 6 2 29 4 53 4 l42 1 0 -51z m85 -247 c-3 -3 -11 0
-18 7 -9 10 -8 11 6 5 10 -3 15 -9 12 -12z"/>
<path d="M5215 3341 c-99 -17 -182 -46 -231 -81 l-21 -16 39 -71 39 -71 72 29
c125 49 242 36 260 -30 5 -19 -5 -44 -17 -41 -14 5 -134 -12 -191 -26 -174
-44 -235 -111 -235 -257 0 -129 65 -196 205 -211 77 -9 167 14 217 55 35 28
38 28 47 10 19 -35 91 -61 167 -61 78 0 67 -9 136 112 21 37 38 72 38 78 0 5
-17 10 -38 10 -65 0 -69 12 -74 205 -3 163 -5 173 -32 228 -30 63 -69 95 -146
122 -54 19 -167 27 -235 16z m156 -486 c-3 -53 -18 -78 -63 -101 -91 -47 -180
38 -115 110 23 26 93 46 152 43 29 -2 29 -3 26 -52z"/>
<path d="M5995 3341 c-97 -25 -170 -94 -201 -188 -29 -88 -26 -297 4 -374 28
-70 61 -105 131 -137 76 -35 195 -36 264 -3 26 13 52 32 58 42 19 36 26 18 23
-58 -4 -95 -22 -117 -107 -135 -57 -12 -88 -9 -243 29 -19 4 -25 -5 -53 -77
-17 -45 -31 -86 -31 -90 0 -5 30 -19 68 -31 51 -16 101 -23 209 -26 124 -5
150 -3 210 15 91 28 145 74 174 150 22 55 23 71 27 465 l4 407 -23 1 c-127 4
-185 -3 -201 -21 -9 -11 -18 -26 -21 -33 -2 -8 -14 -4 -38 13 -19 14 -47 31
-64 39 -36 15 -149 23 -190 12z m208 -205 c63 -26 67 -36 67 -161 l0 -114 -37
-18 c-23 -11 -60 -18 -90 -17 -44 0 -58 5 -82 28 -37 35 -54 106 -42 170 11
58 31 89 73 109 41 20 69 21 111 3z"/>
<path d="M6878 3327 c-144 -51 -229 -187 -231 -367 -3 -224 108 -360 316 -389
75 -11 202 -1 231 16 6 4 16 8 23 9 21 3 118 62 137 83 18 20 17 22 -28 72
-25 28 -46 55 -46 60 0 15 -19 10 -85 -21 -50 -24 -77 -30 -131 -31 -38 -1
-81 5 -97 12 -33 15 -67 67 -67 103 l0 26 242 2 c205 3 241 5 243 18 1 8 -1
57 -5 108 -13 152 -70 238 -196 293 -76 34 -218 37 -306 6z m239 -193 c22 -24
40 -70 31 -79 -2 -2 -57 -5 -123 -6 -113 -1 -119 0 -127 20 -4 11 -4 21 0 21
4 0 14 13 24 29 30 54 152 63 195 15z"/>
<path d="M4600 3328 c-19 -5 -39 -13 -45 -17 -5 -4 -31 -15 -58 -25 -28 -11
-44 -22 -41 -28 5 -7 2 -8 -5 -3 -7 4 -31 -1 -54 -11 -23 -9 -64 -27 -92 -39
-27 -12 -78 -32 -112 -44 l-63 -23 0 -279 0 -279 120 0 120 0 0 230 c0 256 6
287 59 314 47 25 113 21 140 -8 22 -23 22 -28 21 -280 l0 -256 125 0 125 0 0
288 c0 227 -3 299 -15 339 -15 52 -54 103 -92 122 -26 13 -85 13 -133 -1z"/>
<path d="M7502 3308 c-52 -27 -62 -36 -58 -53 3 -11 6 -45 6 -75 l0 -55 33 0
32 0 3 -272 2 -273 120 0 119 0 3 214 c3 200 4 217 24 243 35 46 80 67 146 66
l58 -1 10 37 c12 45 40 179 40 192 0 5 -29 9 -65 9 -79 0 -125 -21 -178 -79
l-37 -41 -24 38 c-38 60 -61 75 -119 79 -43 2 -63 -3 -115 -29z"/>
</g>
</svg>
